{"asset":{"version":"2.0","generator":"Unity 2022.3.29f1c1 glTFast 6.6.0"},"nodes":[{"name":"DamagedHelmet","mesh":0,"rotation":[0.707106769,0,0,0.7071067],"scale":[1,1.00000012,1.00000012]}],"buffers":[{"uri":"DamagedHelmet.bin","byteLength":884112}],"bufferViews":[{"buffer":0,"byteLength":185424},{"buffer":0,"byteLength":582240,"byteOffset":185424,"byteStride":40},{"buffer":0,"byteLength":116448,"byteOffset":767664,"byteStride":8}],"accessors":[{"bufferView":1,"componentType":5126,"count":14556,"type":"VEC3","max":[0.9424954,0.812845,0.900973856],"min":[-0.947458565,-1.187155,-0.900994956]},{"bufferView":1,"componentType":5126,"count":14556,"type":"VEC3","byteOffset":12},{"bufferView":1,"componentType":5126,"count":14556,"type":"VEC4","byteOffset":24},{"bufferView":2,"componentType":5126,"count":14556,"type":"VEC2"},{"bufferView":0,"componentType":5125,"count":46356,"type":"SCALAR"}],"images":[{"name":"Default_albedo.png","uri":"Default_albedo.png","mimeType":"image/png"},{"name":"Default_metalRoughness.png","uri":"Default_metalRoughness.png","mimeType":"image/png"},{"name":"Default_normal.png","uri":"Default_normal.png","mimeType":"image/png"},{"name":"Default_AO.png","uri":"Default_AO.png","mimeType":"image/png"},{"name":"Default_emissive.png","uri":"Default_emissive.png","mimeType":"image/png"}],"materials":[{"name":"Material_MR","pbrMetallicRoughness":{"baseColorTexture":{"index":0},"metallicRoughnessTexture":{"index":1}},"normalTexture":{"index":2},"occlusionTexture":{"index":3},"emissiveTexture":{"index":4},"emissiveFactor":[1,1,1]}],"meshes":[{"name":"mesh_helmet_LP_13930damagedHelmet","primitives":[{"attributes":{"POSITION":0,"NORMAL":1,"TANGENT":2,"TEXCOORD_0":3},"indices":4,"material":0}]}],"scene":0,"scenes":[{"name":"DamagedHelmet","nodes":[0]}],"textures":[{"source":0},{"source":1},{"source":2},{"source":3},{"source":4}]}